Jump_normalized_Motion_pl13
version=1
nRows=19
nColumns=43
inDegrees=yes
endheader
time		pelvis_tilt		pelvis_list		pelvis_rotation		pelvis_tx		pelvis_ty		pelvis_tz		hip_flexion_r		hip_adduction_r		hip_rotation_r		knee_angle_r		ankle_angle_r		subtalar_angle_r		mtp_angle_r		hip_flexion_l		hip_adduction_l		hip_rotation_l		knee_angle_l		ankle_angle_l		subtalar_angle_l		mtp_angle_l		lumbar_extension		lumbar_bending		lumbar_rotation		neck_flexion		neck_lateral_bending		neck_rotation		arm_flex_r		arm_add_r		arm_rot_r		elbow_flex_r		pro_sup_r		wrist_flex_r		wrist_dev_r		hand_finger_flex_r		arm_flex_l		arm_add_l		arm_rot_l		elbow_flex_l		pro_sup_l		wrist_flex_l		wrist_dev_l		hand_finger_flex_l		
0.408333		-0.414514		-25.682703		86.502777		0.038513		1.892767		1.654570		58.265683		2.241974		2.105615		-108.791944		24.051195		-0.304862		15.254959		62.391629		-9.975091		-6.108046		-114.119127		6.800915		2.297256		19.858491		-33.039248		-1.384325		2.197174		27.437889		-2.770905		3.272061		97.603560		-17.629228		16.792278		85.638367		111.333461		-7.435162		3.862483		35.357616		95.940244		-23.190104		17.206253		86.190296		94.629398		-3.594213		1.837176		25.955771		
0.411717		-0.548015		-25.596733		86.419289		0.038209		1.895300		1.647973		57.445761		2.092527		2.298847		-108.214107		23.527926		-0.361102		15.134307		61.836693		-9.947981		-6.263022		-113.632617		5.449972		2.207310		19.829635		-32.661836		-1.465457		2.152578		26.558361		-2.844284		3.280082		98.044096		-17.377422		16.857804		85.397949		111.363163		-7.106898		4.022904		35.245648		96.447741		-23.076340		17.471877		85.901794		94.581408		-3.640989		1.878386		25.994050		
0.415101		-0.647189		-25.476003		86.370017		0.037908		1.897849		1.641279		56.590138		1.971758		2.468046		-107.639249		22.969204		-0.416965		14.999149		61.284982		-9.922413		-6.385804		-113.153488		4.062787		2.049385		19.807469		-32.327175		-1.516488		2.097321		25.709987		-2.902595		3.298749		98.461419		-17.118796		16.910476		85.161519		111.399430		-6.775138		4.184787		35.144256		96.945092		-22.972364		17.740981		85.611333		94.570698		-3.710208		1.929991		26.041368		
0.418485		-0.705233		-25.314034		86.356200		0.037636		1.900458		1.634500		55.692304		1.900221		2.619103		-107.056068		22.360666		-0.450759		14.837054		60.743145		-9.920684		-6.465152		-112.678883		2.557575		1.850297		19.792109		-32.048611		-1.532031		2.036913		24.865643		-2.944603		3.327649		98.861768		-16.850132		16.955436		84.923954		111.450402		-6.441607		4.337321		35.054977		97.432726		-22.885350		18.019591		85.314433		94.618298		-3.802292		1.998404		26.101446		
0.421869		-0.742318		-25.037664		86.354963		0.037449		1.903380		1.627562		54.646215		1.867219		2.738230		-106.431025		21.819895		-0.583263		14.590517		60.100906		-9.950114		-6.562132		-112.143922		0.655839		1.331880		19.797761		-31.954078		-1.549991		1.955500		24.256208		-2.938543		3.348666		99.256373		-16.545306		16.905576		84.748468		111.530603		-5.975535		4.453426		34.910170		97.952003		-22.836363		18.303226		85.074321		94.713863		-4.008620		2.024999		26.228405		
0.425253		-0.760325		-24.903374		86.374174		0.037102		1.905798		1.620859		53.837927		1.875285		2.917892		-105.876545		21.069680		-0.453536		14.373950		59.685795		-9.945523		-6.584520		-111.724451		-0.592631		1.156447		19.809341		-31.647727		-1.518799		1.908458		23.364324		-2.999357		3.413680		99.655226		-16.308250		16.988747		84.462559		111.609120		-5.674221		4.560507		34.818620		98.435631		-22.743765		18.612727		84.705699		94.855667		-4.107967		2.148600		26.320939		
0.428636		-0.770986		-24.734407		86.369905		0.036877		1.908345		1.614104		53.009770		1.935400		3.101697		-105.315613		20.255375		-0.360985		14.140446		59.265532		-9.985634		-6.593341		-111.262075		-2.188034		1.068997		19.818984		-31.406638		-1.506373		1.861595		22.507254		-3.027713		3.442854		100.024053		-16.052960		17.066907		84.187335		111.656749		-5.409806		4.638631		34.757023		98.903148		-22.681007		18.906125		84.378901		95.066023		-4.203747		2.272587		26.400409		
0.432020		-0.785320		-24.553559		86.374180		0.036643		1.910890		1.607366		52.201521		1.997872		3.294180		-104.767478		19.374272		-0.327577		13.883538		58.860154		-10.003356		-6.603953		-110.791259		-3.683441		0.878641		19.846177		-31.209079		-1.499547		1.809573		21.774948		-3.047534		3.469179		100.396821		-15.813468		17.134388		83.935288		111.690835		-5.152009		4.691011		34.697705		99.389586		-22.612796		19.202261		84.054503		95.329242		-4.309772		2.391185		26.475543		
0.435404		-0.816136		-24.340113		86.383813		0.036442		1.913486		1.600594		51.397444		2.040404		3.482392		-104.239032		18.390210		-0.427359		13.573016		58.440691		-10.007825		-6.637017		-110.302453		-5.046576		0.589751		19.929209		-31.077789		-1.513497		1.742990		21.139855		-3.034903		3.477039		100.761794		-15.586498		17.178880		83.719568		111.711081		-4.885898		4.715134		34.606529		99.883895		-22.548887		19.502843		83.749273		95.685792		-4.444786		2.496196		26.561184		
0.438788		-0.853795		-24.092258		86.395269		0.036233		1.916161		1.593768		50.597908		2.087167		3.678984		-103.738540		17.329645		-0.682507		13.174956		57.979824		-9.962210		-6.674071		-109.809324		-6.123865		0.160890		20.128220		-31.011840		-1.548823		1.655846		20.640858		-2.985544		3.476587		101.086325		-15.372690		17.192934		83.533345		111.733353		-4.579161		4.711905		34.432512		100.388702		-22.463730		19.808676		83.453572		96.159833		-4.630832		2.576028		26.690906		
0.442172		-0.873543		-23.993769		86.450508		0.035961		1.918400		1.587195		50.061625		2.093890		3.862191		-103.326514		16.067199		-0.603388		12.905523		57.740090		-9.910959		-6.638775		-109.415784		-6.424003		0.128215		20.254909		-30.765725		-1.533365		1.577200		19.948610		-2.984879		3.472084		101.406552		-15.184629		17.280905		83.320454		111.771534		-4.444134		4.768657		34.332371		100.841734		-22.358420		20.092575		83.105520		96.458149		-4.665976		2.708505		26.732042		
0.445556		-0.897868		-23.703973		86.489197		0.035941		1.921031		1.580271		49.338014		2.152517		4.002317		-102.906714		14.559847		-1.176432		12.461218		57.233075		-9.882931		-6.644839		-108.965096		-6.459185		-0.052896		20.648582		-30.766467		-1.596307		1.458813		19.489519		-2.822302		3.431043		101.648848		-14.989807		17.262861		83.186506		111.826447		-4.200361		4.757529		34.064483		101.353878		-22.285941		20.455382		82.825019		97.116184		-4.813080		2.799946		26.782875		
0.448939		-0.880577		-23.619061		86.589499		0.035636		1.923114		1.573796		48.940038		2.195000		4.191705		-102.603684		13.154555		-0.978893		12.219694		57.057847		-9.797797		-6.545893		-108.612831		-6.061823		-0.180682		20.807903		-30.550615		-1.543507		1.375434		18.947479		-2.805215		3.430970		101.937144		-14.778193		17.302805		82.999878		111.887882		-4.106598		4.800122		33.957516		101.799989		-22.130306		20.712824		82.440319		97.382317		-4.821807		2.920677		26.778568		
0.452323		-0.866385		-23.469650		86.705194		0.035473		1.925273		1.567174		48.512342		2.217105		4.311329		-102.294640		11.451544		-0.956884		11.939867		56.801059		-9.757395		-6.494174		-108.271401		-5.278731		-0.423394		20.984906		-30.426113		-1.531206		1.238328		18.450178		-2.699454		3.395162		102.188171		-14.579622		17.295834		82.834587		111.979009		-4.004845		4.816747		33.843998		102.275159		-22.025069		21.032570		82.126869		97.732576		-4.834084		3.025457		26.736243		
0.455707		-0.840730		-23.163108		86.777493		0.035499		1.927694		1.560276		47.918576		2.329534		4.407750		-101.974787		9.646185		-1.569221		11.655516		56.293002		-9.773635		-6.508790		-107.841356		-4.016240		-0.725226		21.350846		-30.510940		-1.564924		1.108727		18.189774		-2.456487		3.388121		102.381116		-14.344994		17.190398		82.759621		112.217790		-3.766442		4.716189		33.610663		102.777160		-21.970285		21.404873		81.852261		98.330944		-4.899967		3.052018		26.577718		
0.459091		-0.791966		-22.934159		86.888941		0.035440		1.929851		1.553634		47.475649		2.444510		4.534204		-101.692698		7.805049		-1.692906		11.531511		55.987681		-9.769804		-6.459506		-107.444529		-3.081146		-1.200328		21.573365		-30.527847		-1.548459		0.981442		17.885655		-2.313255		3.393457		102.619153		-14.095868		17.095673		82.619449		112.513593		-3.568207		4.657709		33.439070		103.252746		-21.868498		21.715661		81.523218		98.686843		-4.879147		3.077823		26.392855		
0.462475		-0.736608		-22.747194		87.006300		0.035287		1.931820		1.547071		47.125877		2.556716		4.676907		-101.440174		6.014861		-1.564147		11.441317		55.781418		-9.742142		-6.375417		-107.038130		-2.417818		-1.642583		21.718172		-30.501384		-1.503996		0.861237		17.564963		-2.200483		3.392502		102.851006		-13.830024		17.043690		82.451504		112.770330		-3.422077		4.640272		33.309085		103.679544		-21.738628		21.974149		81.158318		98.934069		-4.847028		3.127490		26.235075		
0.465859		-0.656319		-22.513137		87.148978		0.035267		1.933892		1.540377		46.732079		2.674568		4.742374		-101.106690		4.086816		-1.682639		11.619264		55.525968		-9.781260		-6.356825		-106.604984		-1.838333		-2.588070		21.811885		-30.571716		-1.468454		0.709572		17.350189		-2.020397		3.411676		103.058077		-13.613449		16.953063		82.364642		113.265704		-3.264513		4.616760		33.167315		104.104985		-21.688939		22.287753		80.938743		99.142603		-4.772388		3.128399		25.979106		
0.469242		-0.611309		-22.213261		87.253396		0.035193		1.936086		1.533688		46.280427		2.782790		4.836512		-100.709763		1.868268		-2.316740		15.849205		55.209905		-9.762151		-6.378151		-106.103763		-1.708634		-3.874994		22.307080		-30.748774		-1.448846		0.522380		17.295256		-1.874119		3.473840		103.187774		-13.172185		16.542444		82.286628		114.615962		-2.295831		4.260628		32.225097		104.511844		-21.699563		22.519601		80.714731		99.197685		-4.168298		3.124747		24.366558		
